<?xml version="1.0" encoding="UTF-8"?>
<svg version="1.1" xmlns="http://www.w3.org/2000/svg" width="72" height="72">
<path d="M0 0 C3.439707 1.146569 4.32982994 2.32191636 6.6875 5 C9.09862539 7.64805679 10.24318151 8.87613789 13.81640625 9.4609375 C16.72164056 9.41300387 16.72164056 9.41300387 19.484375 9.0859375 C22.37056229 8.98734104 23.65339433 9.33697077 26 11 C28.26264685 14.19144941 28.06667954 16.63206747 27.75 20.4375 C27.57252674 24.35392016 27.57252674 24.35392016 29.2578125 27.72265625 C31.07096369 29.19813484 31.07096369 29.19813484 34 31 C36.34549674 34.51824511 36.57991403 35.85775694 36 40 C33.93174471 42.40364804 31.82567864 44.35263693 29.3359375 46.3046875 C27.43272829 48.71987112 27.76921009 50.41238628 27.9375 53.4375 C28.13908296 57.23656347 28.24049445 59.82422126 26 63 C22.81686444 65.25587433 20.53052506 65.02465551 16.75 64.625 C13.16558726 64.51999723 11.58013949 64.54977209 8.71484375 66.7734375 C7.38506317 68.23389015 6.06685978 69.70498686 4.76171875 71.1875 C3 73 3 73 0 74 C-3.439707 72.853431 -4.32982994 71.67808364 -6.6875 69 C-9.09862539 66.35194321 -10.24318151 65.12386211 -13.81640625 64.5390625 C-16.72164056 64.58699613 -16.72164056 64.58699613 -19.484375 64.9140625 C-22.37056229 65.01265896 -23.65339433 64.66302923 -26 63 C-28.26264685 59.80855059 -28.06667954 57.36793253 -27.75 53.5625 C-27.57252674 49.64607984 -27.57252674 49.64607984 -29.2578125 46.27734375 C-31.07096369 44.80186516 -31.07096369 44.80186516 -34 43 C-36.34549674 39.48175489 -36.57991403 38.14224306 -36 34 C-33.93174471 31.59635196 -31.82567864 29.64736307 -29.3359375 27.6953125 C-27.43272829 25.28012888 -27.76921009 23.58761372 -27.9375 20.5625 C-28.13908296 16.76343653 -28.24049445 14.17577874 -26 11 C-22.81686444 8.74412567 -20.53052506 8.97534449 -16.75 9.375 C-13.16558726 9.48000277 -11.58013949 9.45022791 -8.71484375 7.2265625 C-7.38506317 5.76610985 -6.06685978 4.29501314 -4.76171875 2.8125 C-3 1 -3 1 0 0 Z M10.11083984 23.66210938 C8.88906356 24.88420363 7.6728082 26.11183237 6.4609375 27.34375 C5.82008209 27.9874353 5.17922668 28.63112061 4.51895142 29.29431152 C2.46624433 31.35824447 0.42058629 33.42901163 -1.625 35.5 C-3.01256322 36.8975899 -4.40057828 38.29473135 -5.7890625 39.69140625 C-9.19797984 43.12241587 -12.60058948 46.55957191 -16 50 C-15.67 50.99 -15.34 51.98 -15 53 C-10.70932454 51.34763349 -7.8570447 48.1094793 -4.703125 44.8984375 C-4.10949158 44.30197418 -3.51585815 43.70551086 -2.90423584 43.0909729 C-1.01473373 41.1903019 0.86768392 39.28278526 2.75 37.375 C4.03209065 36.08287532 5.31463761 34.79120324 6.59765625 33.5 C9.73708432 30.33855521 12.87017801 27.1709539 16 24 C15.67 23.01 15.34 22.02 15 21 C12.59036732 20.77412697 12.59036732 20.77412697 10.11083984 23.66210938 Z M-12 24 C-12.33 25.65 -12.66 27.3 -13 29 C-9.95086772 30.01111093 -9.95086772 30.01111093 -7 29 C-7.33 27.35 -7.66 25.7 -8 24 C-9.32 24 -10.64 24 -12 24 Z M7 45 C7.33 46.65 7.66 48.3 8 50 C9.65 49.67 11.3 49.34 13 49 C12.67 47.35 12.34 45.7 12 44 C9.0745356 43.7763932 9.0745356 43.7763932 7 45 Z " fill="#FFFFFF" transform="translate(36,-1)"/>
</svg>
