<svg xmlns="http://www.w3.org/2000/svg" width="512" height="512" viewBox="0 0 512 512"><title>icon-02</title><path d="M299.76,407H212.24a5.46,5.46,0,0,1-5.47-5.47V371.15a5.47,5.47,0,0,1,5.47-5.47h87.52a5.47,5.47,0,0,1,5.47,5.47v30.37A5.47,5.47,0,0,1,299.76,407Zm-82-10.94h76.58V376.62H217.71Z" transform="translate(0 0)" fill="#008cf0"/><ellipse cx="220.86" cy="160.7" rx="7.66" ry="8.75" fill="#008cf0"/><ellipse cx="290.88" cy="160.7" rx="7.66" ry="8.75" fill="#008cf0"/><path d="M255.87,210.92a27.62,27.62,0,0,1-17.19-6,5.47,5.47,0,0,1,6.79-8.58,16.66,16.66,0,0,0,20.8,0,5.47,5.47,0,0,1,6.79,8.58,27.62,27.62,0,0,1-17.19,6Z" transform="translate(0 0)" fill="#008cf0"/><path d="M177.6,170.79Z" transform="translate(0 0)" fill="#008cf0"/><path d="M323.28,472.62H188.72a5.47,5.47,0,1,1,0-10.94H323.28a5.47,5.47,0,1,1,0,10.94Z" transform="translate(0 0)" fill="#008cf0"/><path d="M369.78,494.5a5.47,5.47,0,0,1-5.47-5.47v-6.62a5.47,5.47,0,1,1,10.94,0V489A5.47,5.47,0,0,1,369.78,494.5Z" transform="translate(0 0)" fill="#008cf0"/><path d="M369.78,457.35a5.47,5.47,0,0,1-5.47-5.47v-6.62a5.47,5.47,0,0,1,10.94,0v6.62A5.47,5.47,0,0,1,369.78,457.35Z" transform="translate(0 0)" fill="#008cf0"/><path d="M354.51,472.62H347.9a5.47,5.47,0,1,1,0-10.94h6.61a5.47,5.47,0,1,1,0,10.94Z" transform="translate(0 0)" fill="#008cf0"/><path d="M391.66,472.62h-6.61a5.47,5.47,0,1,1,0-10.94h6.61a5.47,5.47,0,1,1,0,10.94Z" transform="translate(0 0)" fill="#008cf0"/><path d="M142.22,494.5a5.47,5.47,0,0,1-5.47-5.47v-6.62a5.47,5.47,0,1,1,10.94,0V489A5.47,5.47,0,0,1,142.22,494.5Z" transform="translate(0 0)" fill="#008cf0"/><path d="M142.22,457.35a5.47,5.47,0,0,1-5.47-5.47v-6.62a5.47,5.47,0,0,1,10.94,0v6.62A5.47,5.47,0,0,1,142.22,457.35Z" transform="translate(0 0)" fill="#008cf0"/><path d="M127,472.62h-6.61a5.47,5.47,0,1,1,0-10.94H127a5.47,5.47,0,0,1,0,10.94Z" transform="translate(0 0)" fill="#008cf0"/><path d="M164.1,472.62h-6.61a5.47,5.47,0,0,1,0-10.94h6.61a5.47,5.47,0,0,1,0,10.94Z" transform="translate(0 0)" fill="#008cf0"/><circle cx="337.92" cy="402.18" r="6.02" fill="#008cf0"/><circle cx="173.82" cy="402.18" r="6.02" fill="#008cf0"/><path d="M495.37,204.93c-19-19.17-50.83-19.17-69.86,0l-28.39,28.6a16.83,16.83,0,0,0-19.05,3.24L371.94,243a16.83,16.83,0,0,0-3.18,19.15L345,286a126.11,126.11,0,0,0-47.33-30V232.84a84.16,84.16,0,0,0,41.5-62.4,27.33,27.33,0,0,0,10.52-49.87V93.05a5.21,5.21,0,0,0-.22-1.43A93.14,93.14,0,0,0,256.49,0h-1a93.17,93.17,0,0,0-92.88,87.58H148c-11.14,0-20.64,8.64-21.06,19.77a20.59,20.59,0,0,0,20.55,21.36h6.69a27.33,27.33,0,0,0,18.32,41.69A84.19,84.19,0,0,0,214,232.84V256a126.18,126.18,0,0,0-48.31,31L141,262.1A16.83,16.83,0,0,0,137.87,243l-6.13-6.18a16.85,16.85,0,0,0-23.6,0L89.53,255.51,62,227.72a5.46,5.46,0,0,0-7.75,0l-35.58,35.6a39.06,39.06,0,0,1,3.59-50.67,38.58,38.58,0,0,1,54.33,0l14,14.11a5.63,5.63,0,0,0,7.5.56,5.48,5.48,0,0,0,.43-8.1L84.3,204.93c-19-19.17-50.83-19.17-69.85,0a50,50,0,0,0,0,70.26,5.46,5.46,0,0,0,7.75,0l35.85-35.87,23.78,23.95L48,297.33a5.46,5.46,0,0,0,0,7.7l54,54.45c3.71,3.74,8.15,2.71,9.37-2.41a5.45,5.45,0,0,0-1.44-5.13L81.59,323.32,98.81,306l18.62,18.76a5.52,5.52,0,0,0,9.35-3.56L127,317a5.08,5.08,0,0,1,3.3-4.58,5.37,5.37,0,0,1,6.84,4.08l1.76,11.9a125,125,0,0,0-8.79,43.84v21.42a5.61,5.61,0,0,0,4.91,5.67,5.46,5.46,0,0,0,6-5.43V374.68A114.8,114.8,0,0,1,187,282.83v45.34a18.61,18.61,0,0,0-18.6,18.59V381a5.63,5.63,0,0,0,4.93,5.68,5.48,5.48,0,0,0,6-5.45v-34.5A7.66,7.66,0,0,1,187,339.1H322.61a9.85,9.85,0,0,1,9.84,9.85v30.44a5.62,5.62,0,0,0,4.93,5.67,5.46,5.46,0,0,0,6-5.44V349a20.82,20.82,0,0,0-18.6-20.67V282.82a114.82,114.82,0,0,1,45.95,91.86v18.07a5.47,5.47,0,0,0,10.94,0V374.68A124.92,124.92,0,0,0,371.41,325l1.26-8.49a5.37,5.37,0,0,1,6.84-4.09,5.08,5.08,0,0,1,3.3,4.58l.23,4.21a5.51,5.51,0,0,0,9.34,3.56L411,306l17.22,17.35L395.6,356.18a5.63,5.63,0,0,0-.5,7.5,5.47,5.47,0,0,0,8.1.37l58.58-59a5.47,5.47,0,0,0,0-7.71L428,263.28l23.78-23.95,35.85,35.87a5.46,5.46,0,0,0,7.75,0,50,50,0,0,0,0-70.26Zm-155.5-76.22H342a16.4,16.4,0,0,1-2.08,30.34Zm-266,186.84h0L59.62,301.18l56.28-56.7q4-3.39,8.08,0l6.13,6.17a5.88,5.88,0,0,1,0,8.26ZM156.5,297.6a126.84,126.84,0,0,0-9.41,13.93,16.21,16.21,0,0,0-20.69-9.37,16,16,0,0,0-8.51,7.5l-11.37-11.45L134,270.53l23.22,23.39Zm99-286.66h1a82.21,82.21,0,0,1,81.93,76.64H173.58A82.22,82.22,0,0,1,255.51,10.94ZM171.87,159a16.38,16.38,0,0,1-1.8-30.24h1.8Zm-24.35-41.18a9.63,9.63,0,0,1,0-19.25H338.78v19.25ZM182.81,160V128.71H328.93V160a73.06,73.06,0,0,1-146.12,0Zm104,78.1v31.52a30.89,30.89,0,1,1-61.77,0V238.15a83.85,83.85,0,0,0,61.77,0Zm27.09,90h-116V275.53a115.48,115.48,0,0,1,16.16-7.87v2a41.83,41.83,0,1,0,83.65,0v-2a115.31,115.31,0,0,1,16.15,7.86Zm78.07-18.51a15.92,15.92,0,0,0-8.51-7.5,16.22,16.22,0,0,0-19.86,7.54c-3.77-6.22-6.45-11.43-10.95-15.78l23.22-23.39,27.48,27.68Zm58.27-8.48-14.26,14.37L379.7,258.91a5.88,5.88,0,0,1,0-8.26l6.13-6.17q4-3.37,8.08,0Zm41-37.87-35.58-35.6a5.47,5.47,0,0,0-7.76,0l-27.58,27.79L405.5,240.62l27.78-28a38.57,38.57,0,0,1,54.32,0A39.05,39.05,0,0,1,491.2,263.31Z" transform="translate(0 0)" fill="#008cf0"/><path d="M510,459.35l-49.87-40.57L510,378.22a5.51,5.51,0,0,0-3.45-9.72H419.75c-3.33.32-5.15,2.14-5.47,5.48v45.23H305.23V371.15a5.47,5.47,0,0,0-5.47-5.47H212.24a5.47,5.47,0,0,0-5.47,5.47v48.06H97.86L97.72,374a5.48,5.48,0,0,0-5.47-5.46H5.47A5.51,5.51,0,0,0,2,378.22l49.87,40.56L2,459.35a5.51,5.51,0,0,0,3.45,9.71h81.6v37.47A5.47,5.47,0,0,0,92.54,512H419.77a5.47,5.47,0,0,0,5.47-5.47V469.06h81.29A5.51,5.51,0,0,0,510,459.35ZM20.86,458.12,64,423a5.53,5.53,0,0,0,0-8.49l-43.15-35.1H86.79l.26,78.68Zm196.85-81.5h76.58v19.43H217.71Zm0,30.37h76.58v12.22H217.71ZM414.3,501.06H98V430.15H414.3Zm10.94-42.94V424.68s0,0,0-.05V379.45h65.92L448,414.54a5.53,5.53,0,0,0,0,8.49l43.15,35.09Z" transform="translate(0 0)" fill="#008cf0"/><path d="M111.73,16.27,128,25.16l-16.27,8.9-8.89,16.26-8.9-16.26-16.26-8.9,16.26-8.89L102.84,0Z" transform="translate(0 0)" fill="#008cf0"/><path d="M34.06,124.57l16.26,8.9-16.26,8.9-8.9,16.26-8.89-16.26L0,133.47l16.27-8.9,8.89-16.26Z" transform="translate(0 0)" fill="#008cf0"/><path d="M400.27,16.27,384,25.16l16.27,8.9,8.89,16.26,8.9-16.26,16.26-8.9-16.26-8.89L409.16,0Z" transform="translate(0 0)" fill="#008cf0"/><path d="M477.94,124.57l-16.26,8.9,16.26,8.9,8.9,16.26,8.89-16.26,16.27-8.9-16.27-8.9-8.89-16.26Z" transform="translate(0 0)" fill="#008cf0"/></svg>