<svg xmlns="http://www.w3.org/2000/svg" width="493.71" height="502.05" viewBox="0 0 493.71 502.05"><title>icon-01</title><path d="M440.81,435.05H419.87a6,6,0,0,0-5.2,3L404.2,456.18a6,6,0,0,0,0,6l10.47,18.14a6,6,0,0,0,5.2,3h20.94a6,6,0,0,0,5.2-3l10.47-18.14a6,6,0,0,0,0-6L446,438.05A6,6,0,0,0,440.81,435.05Zm-3.47,36.27h-14l-7-12.14,7-12.13h14l7,12.13Z" transform="translate(-9.15 -5)" fill="#008cf0"/><path d="M291.43,296.48a202.22,202.22,0,0,1-49.93-19.79L229,269.83v-5.64a68.13,68.13,0,0,0,21.91-40.1l4.45-28.36a18.4,18.4,0,0,0,9.12-33.11,119.62,119.62,0,0,0,4.8-19h2.05a17.6,17.6,0,0,0,5.43-34.35A104.22,104.22,0,0,0,256.7,51.7a94.89,94.89,0,0,0-46.08-33.76l.65-6.32A6,6,0,0,0,205.92,5c-.21,0-.41,0-.62,0H159.72a6,6,0,0,0-6,6c0,.21,0,.41,0,.62l.66,6.32a94.83,94.83,0,0,0-46.09,33.84,104.47,104.47,0,0,0-20.07,57.49,17.6,17.6,0,0,0,5.41,34.35h1.55a93,93,0,0,0,4.44,14.53l2.28,5.72a18.4,18.4,0,0,0,10.64,31.86L117,224.09a68.05,68.05,0,0,0,19.13,37.48v10.35l-12.49,6.27a5.85,5.85,0,0,0-2.1,1.05l-1.22.62a214.44,214.44,0,0,1-46.75,16.62A83.8,83.8,0,0,0,9.15,378.27V501a6,6,0,0,0,6,6H349.87a6,6,0,0,0,6-6h0V378.27A83.8,83.8,0,0,0,291.43,296.48ZM69,495H21.15V378.27A71.82,71.82,0,0,1,69,310.36ZM150.65,32.28a76.49,76.49,0,0,1,11.78-4.22,6,6,0,0,0,4.43-6.41L166.38,17h32.27l-.49,4.65a6,6,0,0,0,4.43,6.41,75.46,75.46,0,0,1,11.78,4.22v8.2a48.55,48.55,0,0,1-30.91,45.23,48.43,48.43,0,0,1-32.81-45.93ZM118,58.92A85.23,85.23,0,0,1,138.65,39v.77a60.39,60.39,0,0,0,41.82,57.58l1.24.4a6,6,0,0,0,3.81,0,60.56,60.56,0,0,0,40.85-57.26V39a85,85,0,0,1,20.68,19.85,92,92,0,0,1,17.66,49.57H100.31A92.39,92.39,0,0,1,118,58.92Zm-24.31,72.7a5.61,5.61,0,1,1-.15-11.21H271.36a5.61,5.61,0,0,1,.15,11.21H93.66Zm163.47,12q-.4,2.16-.9,4.29v-4.29Zm-145.41,0V156l-.92-2.3a83,83,0,0,1-3.26-10.09Zm17.15,78.61-5.22-33.34a6,6,0,0,0-5.93-5.07H114.4a6.43,6.43,0,0,1-.16-12.85h3.48a6,6,0,0,0,6-6V143.62H244.23V165a6,6,0,0,0,6,6h3.15a6,6,0,0,0,3.47,1.11l.28,0a6.43,6.43,0,0,1-3.58,11.76h-3.32a6,6,0,0,0-5.92,5.07l-5.23,33.34a55.78,55.78,0,0,1-110.21,0Zm19.28,51.65v-2.77c1.28.8,2.59,1.57,3.93,2.28a67.67,67.67,0,0,0,63.79,0c.39-.2.77-.42,1.15-.64v24.1a47,47,0,0,1-66.43,2.44c-.85-.79-1.66-1.6-2.44-2.44V277.11a5.73,5.73,0,0,0,0-3.23Zm-16.9,13.92,4.9-2.45v13.77a6,6,0,0,0,1.42,3.88,59,59,0,0,0,90,0,6,6,0,0,0,1.42-3.88v-15.6l4.75,2.61v45.55a51.26,51.26,0,0,1-102.52,0ZM235.85,495H139.14V442.44a123,123,0,0,0,96.71.17ZM284,495H247.85V433.13a6,6,0,0,0-8.78-5.31,111,111,0,0,1-103.13-.19,6,6,0,0,0-8.8,5.3V495H81V307a229,229,0,0,0,38.26-13.32v38a63.26,63.26,0,0,0,126.52,0V292.43A209.61,209.61,0,0,0,284,307Zm59.83,0H296V310.36a71.83,71.83,0,0,1,47.83,67.91Z" transform="translate(-9.15 -5)" fill="#008cf0"/><path d="M182.51,349.14a7.91,7.91,0,1,0-7.91-7.91h0A7.93,7.93,0,0,0,182.51,349.14Z" transform="translate(-9.15 -5)" fill="#008cf0"/><path d="M182.51,374A7.91,7.91,0,1,0,174.6,366h0A7.93,7.93,0,0,0,182.51,374Z" transform="translate(-9.15 -5)" fill="#008cf0"/><path d="M501.12,197.53l-.25-.27a6,6,0,0,0-9.81,1.56L461.5,228.38l-38.28-7.11L416.11,183l30.59-30.58a6,6,0,0,0,0-8.49h0l-.26-.26a6,6,0,0,0-3.68-1.73,66.29,66.29,0,0,0-42.17,121.69V421.8a47.81,47.81,0,1,0,59.51,0V269.89a66.21,66.21,0,0,0,42.55-67.2A6,6,0,0,0,501.12,197.53Zm-35,261.65a35.82,35.82,0,1,1-35.81-35.81h0A35.85,35.85,0,0,1,466.15,459.18ZM412.58,414.8V269.73a66.29,66.29,0,0,0,35.51,3.45V414.8A47.6,47.6,0,0,0,412.58,414.8ZM475,246.33a54.3,54.3,0,1,1-47.16-92l-22.4,22.4a6,6,0,0,0-1.65,5.34l8.44,45.43a6,6,0,0,0,4.8,4.8l45.43,8.44a6,6,0,0,0,5.34-1.66l22.4-22.4A54,54,0,0,1,475,246.33Z" transform="translate(-9.15 -5)" fill="#008cf0"/><path d="M172.8,65h21.53a6,6,0,0,0,0-12H172.8a6,6,0,0,0,0,12Z" transform="translate(-9.15 -5)" fill="#008cf0"/><path d="M172.8,45.1h21.53a6,6,0,0,0,0-12H172.8a6,6,0,0,0,0,12Z" transform="translate(-9.15 -5)" fill="#008cf0"/></svg>