<svg xmlns="http://www.w3.org/2000/svg" width="512.02" height="291.97" viewBox="0 0 512.02 291.97"><title>icon-06</title><path d="M423.83,322.06a26,26,0,1,0,26,26A26,26,0,0,0,423.83,322.06Zm0,37.92a12,12,0,1,1,12-12,12,12,0,0,1-12,12Z" transform="translate(0 -110.02)" fill="#008cf0"/><path d="M99.34,322.06a26,26,0,1,0,26,26A26,26,0,0,0,99.34,322.06Zm0,37.92a12,12,0,1,1,12-12,12,12,0,0,1-12,12Z" transform="translate(0 -110.02)" fill="#008cf0"/><path d="M425,185.77H349.67V117a7,7,0,0,0-7-7H7a7,7,0,0,0-7,7H0V348a7,7,0,0,0,7,7H45.88a53.9,53.9,0,0,0,106.91,0H370.4a53.9,53.9,0,0,0,106.9,0H505a7,7,0,0,0,7-7h0V272.77A87.11,87.11,0,0,0,425,185.77ZM14,124H335.67V341H152.84a54.63,54.63,0,0,0-53.5-47,54.64,54.64,0,0,0-53.51,47H14ZM99.34,388a40,40,0,1,1,40-40h0A40,40,0,0,1,99.34,388Zm324.49,0a40,40,0,1,1,40-40h0A40,40,0,0,1,423.83,388ZM498,341H477.34a54,54,0,0,0-107,0H349.67V199.77H425a73.08,73.08,0,0,1,73,73Z" transform="translate(0 -110.02)" fill="#008cf0"/><path d="M99.34,276.06a71.89,71.89,0,0,1,42.26,13.81,73.56,73.56,0,0,1,23.51,29,7,7,0,0,0,6.4,4.15H310.67a7,7,0,0,0,7-7h0V149a7,7,0,0,0-7-7H39a7,7,0,0,0-7,7h0V297.14a7,7,0,0,0,12.35,4.52A71.89,71.89,0,0,1,99.34,276.06Zm56.92,7.66,31.17-31.16a7,7,0,0,0,1.77-6.93,36.8,36.8,0,0,1,9.26-36.4l2.11-2.1a37.67,37.67,0,0,1,28.31-11l-24,24a7,7,0,0,0-1.77,6.92l5.63,19.2a7,7,0,0,0,4.75,4.75l19.2,5.63a7,7,0,0,0,6.92-1.77l24-24a37.89,37.89,0,0,1-11,28.31l-2.1,2.11a36.82,36.82,0,0,1-36.4,9.26,7,7,0,0,0-6.93,1.77L174,305.41A86.7,86.7,0,0,0,156.26,283.72ZM46,156H303.67V309H190.17L214.24,285a50.8,50.8,0,0,0,46.11-13.83l2.1-2.1a52,52,0,0,0,11.92-54.77,7,7,0,0,0-11.51-2.5l-30.19,30.19-11.53-3.39L217.75,227l30.19-30.19a7,7,0,0,0,0-9.89,7.18,7.18,0,0,0-2.51-1.62,52,52,0,0,0-54.77,11.92l-2.1,2.1a50.74,50.74,0,0,0-13.83,46.11L145,275.23a85.74,85.74,0,0,0-99,5.42Z" transform="translate(0 -110.02)" fill="#008cf0"/><path d="M425,213.77H370.67a7,7,0,0,0-7,7v41.5a7,7,0,0,0,7,7H475.93a7,7,0,0,0,7-7,7.3,7.3,0,0,0-.14-1.4A59.2,59.2,0,0,0,425,213.77Zm-47.33,41.5v-27.5H425a45.21,45.21,0,0,1,41.46,27.5Z" transform="translate(0 -110.02)" fill="#008cf0"/><path d="M120.53,216.32c0-13.73-19.2-35.7-23.06-40a7.19,7.19,0,0,0-10.18-.22l-.22.22c-3.85,4.26-23,26.23-23,40a28.25,28.25,0,0,0,56.5.68v-.68ZM92.28,230.58A14.27,14.27,0,0,1,78,216.32c0-4.54,6.71-15.1,14.25-24.48,7.54,9.38,14.25,19.94,14.25,24.48A14.28,14.28,0,0,1,92.28,230.58Z" transform="translate(0 -110.02)" fill="#008cf0"/></svg>