<svg xmlns="http://www.w3.org/2000/svg" width="502.05" height="502.01" viewBox="0 0 502.05 502.01"><title>icon-03</title><path d="M312.87,250.12l17.57-17.57a6,6,0,0,0,0-8.49h0l-5.26-5.26,110-110L463,98.93a6,6,0,0,0,3.18-2.63l33.07-56.56a6,6,0,0,0-.94-7.27L479.53,13.68a6,6,0,0,0-7.27-.94L415.7,45.81A6.06,6.06,0,0,0,413.07,49l-9.88,27.85-110,110-5.27-5.26a6,6,0,0,0-8.48,0h0l-17.57,17.57-34.34-34.34A115.69,115.69,0,0,0,83.9,11a6,6,0,0,0-3.79,7.59,5.88,5.88,0,0,0,1.45,2.34l42.19,42.19-10,50.09-52,9.2L21,81.41a6,6,0,0,0-10,2.32A115.68,115.68,0,0,0,164.79,227.54L185.22,248l-22.7,12.42a5.9,5.9,0,0,0-1.36,1L25.66,396.91a46.93,46.93,0,0,0,0,66.3l23.12,23.13a47,47,0,0,0,66.3,0l135.5-135.5a5.83,5.83,0,0,0,1-1.36L264,326.78,431.25,494A44.37,44.37,0,0,0,494,431.25h0Zm-11.34,34.07a10.61,10.61,0,0,1-15,0l-58.72-58.72a10.61,10.61,0,0,1,15-15l58.72,58.72A10.61,10.61,0,0,1,301.53,284.19ZM412.63,84.36A5.88,5.88,0,0,0,414,82.13l9.6-27.06,50.68-29.63,12.24,12.24L456.93,88.35,429.87,98a6,6,0,0,0-2.23,1.41l-110.95,111-15-15ZM283.69,194.29l34,34-20,20-34-34ZM170.38,216.16a6,6,0,0,0-6.73-1.21,104.08,104.08,0,0,1-116.3-21A103,103,0,0,1,19.67,97.12l35.68,35.93a6,6,0,0,0,5.3,1.68l59.17-10.46a6,6,0,0,0,4.84-4.73l11.49-57.25a6,6,0,0,0-1.64-5.42L97.27,19.64A103.69,103.69,0,0,1,215,163.65a6,6,0,0,0,1.22,6.73l26.1,26.1a22.56,22.56,0,0,0-26.68,10.45l-10.65-10.65a6,6,0,1,0-8.49,8.48L213,221.3a22.42,22.42,0,0,0,3.7,9.46L196.19,242ZM241.5,343,106.6,477.86a34.92,34.92,0,0,1-49.33,0L34.14,454.73a34.92,34.92,0,0,1,0-49.33L169,270.5l56.12-30.71,47,47Zm244,142.56a32.37,32.37,0,0,1-45.78,0h0L270,315.82l11.21-20.5a22.58,22.58,0,0,0,9.56,3.74c.1.12.19.25.31.37L422.87,431.18a6,6,0,0,0,8.49-8.48L305.06,296.4a22.49,22.49,0,0,0,10.46-26.67l170,170a32.37,32.37,0,0,1,0,45.78h0Z" transform="translate(-4.95 -4.98)" fill="#008cf0"/><path d="M197.32,139.68a6,6,0,0,0,6-5.54,92.75,92.75,0,0,0-4.41-36.31,6,6,0,1,0-11.39,3.77,80.91,80.91,0,0,1,3.84,31.62,6,6,0,0,0,5.52,6.44l.47,0Z" transform="translate(-4.95 -4.98)" fill="#008cf0"/><path d="M188.72,76.65A94.54,94.54,0,0,0,183,68.82a6,6,0,0,0-9.33,7.55,82.55,82.55,0,0,1,4.94,6.81,6,6,0,0,0,10.13-6.43Z" transform="translate(-4.95 -4.98)" fill="#008cf0"/><path d="M185.34,344,89.48,439.87A6,6,0,0,0,98,448.35l95.86-95.85a6,6,0,0,0-8.49-8.49Z" transform="translate(-4.95 -4.98)" fill="#008cf0"/><path d="M168,318.17a6,6,0,0,0-8.49,0L63.64,414a6,6,0,0,0,8.49,8.49L168,326.66a6,6,0,0,0,0-8.49Z" transform="translate(-4.95 -4.98)" fill="#008cf0"/></svg>